HIERARCHY
ROOT Hips
{
  OFFSET -304.748 92.812 1174.12
  CHANNELS 6 Xposition Yposition Zposition Zrotation Xrotation Yrotation
  JOINT Spine
  {
    OFFSET 3.96191e-05 8 6.97725e-05
    CHANNELS 6 Xposition Yposition Zposition Zrotation Xrotation Yrotation
    JOINT Spine1
    {
      OFFSET 5.93284e-05 7.99999 -7.72335e-05
      CHANNELS 6 Xposition Yposition Zposition Zrotation Xrotation Yrotation
      JOINT Spine2
      {
        OFFSET 0.00137032 8.00001 0.00142118
        CHANNELS 6 Xposition Yposition Zposition Zrotation Xrotation Yrotation
        JOINT Spine3
        {
          OFFSET 0 8 0
          CHANNELS 6 Xposition Yposition Zposition Zrotation Xrotation Yrotation
          JOINT Neck
          {
            OFFSET 4.70135e-05 17 -3.09185e-05
            CHANNELS 6 Xposition Yposition Zposition Zrotation Xrotation Yrotation
            JOINT Head
            {
              OFFSET -0.00192691 10.8 -0.00219947
              CHANNELS 6 Xposition Yposition Zposition Zrotation Xrotation Yrotation
              End Site
              {
                OFFSET 0 20.25 0
              }
            }
          }
          JOINT LeftShoulder
          {
            OFFSET 5.00007 17 -4.08325e-05
            CHANNELS 6 Xposition Yposition Zposition Zrotation Xrotation Yrotation
            JOINT LeftShoulder2
            {
              OFFSET 6.45 0 0
              CHANNELS 6 Xposition Yposition Zposition Zrotation Xrotation Yrotation
              JOINT LeftArm
              {
                OFFSET 6.44993 -1.35838e-05 5.21185e-05
                CHANNELS 6 Xposition Yposition Zposition Zrotation Xrotation Yrotation
                JOINT LeftForeArm
                {
                  OFFSET 0.000937545 -32.398 -1.99626
                  CHANNELS 6 Xposition Yposition Zposition Zrotation Xrotation Yrotation
                  JOINT LeftHand
                  {
                    OFFSET -0.00505595 -25.6522 2.00408
                    CHANNELS 6 Xposition Yposition Zposition Zrotation Xrotation Yrotation
                    JOINT LeftHandThumb1
                    {
                      OFFSET -0.500788 -1.49977 2.6504
                      CHANNELS 6 Xposition Yposition Zposition Zrotation Xrotation Yrotation
                      JOINT LeftHandThumb2
                      {
                        OFFSET 0.000599468 -3.7992 3.70082
                        CHANNELS 6 Xposition Yposition Zposition Zrotation Xrotation Yrotation
                        JOINT LeftHandThumb3
                        {
                          OFFSET -0.00815233 -3.01158 2.70015
                          CHANNELS 6 Xposition Yposition Zposition Zrotation Xrotation Yrotation
                          End Site
                          {
                            OFFSET -0.000329722 -2.29281 1.80779
                          }
                        }
                      }
                    }
                    JOINT LeftHandIndex
                    {
                      OFFSET -0.00018513 -1.90047 1.59918
                      CHANNELS 6 Xposition Yposition Zposition Zrotation Xrotation Yrotation
                      JOINT LeftHandIndex1
                      {
                        OFFSET 5.86936e-05 -8.29987 1.89984
                        CHANNELS 6 Xposition Yposition Zposition Zrotation Xrotation Yrotation
                        JOINT LeftHandIndex2
                        {
                          OFFSET -7.81929e-05 -4.50008 0.000252758
                          CHANNELS 6 Xposition Yposition Zposition Zrotation Xrotation Yrotation
                          JOINT LeftHandIndex3
                          {
                            OFFSET 2.21534e-05 -3.40003 0.000132852
                            CHANNELS 6 Xposition Yposition Zposition Zrotation Xrotation Yrotation
                            End Site
                            {
                              OFFSET 0.000604833 -2.59987 -0.000426358
                            }
                          }
                        }
                      }
                    }
                    JOINT LeftHandMiddle
                    {
                      OFFSET -0.245795 -2.20543 0.402755
                      CHANNELS 6 Xposition Yposition Zposition Zrotation Xrotation Yrotation
                      JOINT LeftHandMiddle1
                      {
                        OFFSET 1.32065e-05 -8.29995 0.99986
                        CHANNELS 6 Xposition Yposition Zposition Zrotation Xrotation Yrotation
                        JOINT LeftHandMiddle2
                        {
                          OFFSET 0.000634602 -4.65265 0.00091519
                          CHANNELS 6 Xposition Yposition Zposition Zrotation Xrotation Yrotation
                          JOINT LeftHandMiddle3
                          {
                            OFFSET 0.000775771 -3.29995 0.000974368
                            CHANNELS 6 Xposition Yposition Zposition Zrotation Xrotation Yrotation
                            End Site
                            {
                              OFFSET -0.00374287 -2.69948 -0.00271935
                            }
                          }
                        }
                      }
                    }
                    JOINT LeftHandRing
                    {
                      OFFSET -0.50093 -2.15048 -0.800678
                      CHANNELS 6 Xposition Yposition Zposition Zrotation Xrotation Yrotation
                      JOINT LeftHandRing1
                      {
                        OFFSET -0.00398826 -7.73816 -0.204731
                        CHANNELS 6 Xposition Yposition Zposition Zrotation Xrotation Yrotation
                        JOINT LeftHandRing2
                        {
                          OFFSET -0.00079936 -3.79979 0.000355825
                          CHANNELS 6 Xposition Yposition Zposition Zrotation Xrotation Yrotation
                          JOINT LeftHandRing3
                          {
                            OFFSET -0.00315335 -3.40261 -0.000675492
                            CHANNELS 6 Xposition Yposition Zposition Zrotation Xrotation Yrotation
                            End Site
                            {
                              OFFSET -0.00257736 -2.60058 0.000405405
                            }
                          }
                        }
                      }
                    }
                    JOINT LeftHandPinky
                    {
                      OFFSET -0.75128 -1.7496 -1.84936
                      CHANNELS 6 Xposition Yposition Zposition Zrotation Xrotation Yrotation
                      JOINT LeftHandPinky1
                      {
                        OFFSET 3.34834e-05 -7.15009 -0.999891
                        CHANNELS 6 Xposition Yposition Zposition Zrotation Xrotation Yrotation
                        JOINT LeftHandPinky2
                        {
                          OFFSET 0.00718079 -2.99746 0.00162212
                          CHANNELS 6 Xposition Yposition Zposition Zrotation Xrotation Yrotation
                          JOINT LeftHandPinky3
                          {
                            OFFSET -0.00249662 -2.34953 0.00183554
                            CHANNELS 6 Xposition Yposition Zposition Zrotation Xrotation Yrotation
                            End Site
                            {
                              OFFSET 0.000218352 -2.10222 0.00101107
                            }
                          }
                        }
                      }
                    }
                  }
                }
              }
            }
          }
          JOINT RightShoulder
          {
            OFFSET -4.99997 17 -2.60738e-05
            CHANNELS 6 Xposition Yposition Zposition Zrotation Xrotation Yrotation
            JOINT RightShoulder2
            {
              OFFSET -6.45 0 0
              CHANNELS 6 Xposition Yposition Zposition Zrotation Xrotation Yrotation
              JOINT RightArm
              {
                OFFSET -6.44997 0 0
                CHANNELS 6 Xposition Yposition Zposition Zrotation Xrotation Yrotation
                JOINT RightForeArm
                {
                  OFFSET -0.00442521 -32.3886 -1.98935
                  CHANNELS 6 Xposition Yposition Zposition Zrotation Xrotation Yrotation
                  JOINT RightHand
                  {
                    OFFSET 6.57892e-05 -25.6546 1.99832
                    CHANNELS 6 Xposition Yposition Zposition Zrotation Xrotation Yrotation
                    JOINT RightHandThumb1
                    {
                      OFFSET 0.498469 -1.50133 2.65313
                      CHANNELS 6 Xposition Yposition Zposition Zrotation Xrotation Yrotation
                      JOINT RightHandThumb2
                      {
                        OFFSET -6.97814e-05 -3.79999 3.69996
                        CHANNELS 6 Xposition Yposition Zposition Zrotation Xrotation Yrotation
                        JOINT RightHandThumb3
                        {
                          OFFSET 0.000539382 -3.0141 2.69667
                          CHANNELS 6 Xposition Yposition Zposition Zrotation Xrotation Yrotation
                          End Site
                          {
                            OFFSET -4.05196e-05 -2.30005 1.79995
                          }
                        }
                      }
                    }
                    JOINT RightHandIndex
                    {
                      OFFSET 0.00021856 -1.89674 1.60159
                      CHANNELS 6 Xposition Yposition Zposition Zrotation Xrotation Yrotation
                      JOINT RightHandIndex1
                      {
                        OFFSET 9.12569e-05 -8.29859 1.90064
                        CHANNELS 6 Xposition Yposition Zposition Zrotation Xrotation Yrotation
                        JOINT RightHandIndex2
                        {
                          OFFSET 0.00221071 -4.49815 -0.0065728
                          CHANNELS 6 Xposition Yposition Zposition Zrotation Xrotation Yrotation
                          JOINT RightHandIndex3
                          {
                            OFFSET -0.000193711 -3.39964 0.00163409
                            CHANNELS 6 Xposition Yposition Zposition Zrotation Xrotation Yrotation
                            End Site
                            {
                              OFFSET 0.00174524 -2.60054 0.000467352
                            }
                          }
                        }
                      }
                    }
                    JOINT RightHandMiddle
                    {
                      OFFSET 0.249922 -2.19964 0.400063
                      CHANNELS 6 Xposition Yposition Zposition Zrotation Xrotation Yrotation
                      JOINT RightHandMiddle1
                      {
                        OFFSET -0.00230677 -8.30205 1.00434
                        CHANNELS 6 Xposition Yposition Zposition Zrotation Xrotation Yrotation
                        JOINT RightHandMiddle2
                        {
                          OFFSET 4.96849e-05 -4.64989 -0.000626737
                          CHANNELS 6 Xposition Yposition Zposition Zrotation Xrotation Yrotation
                          JOINT RightHandMiddle3
                          {
                            OFFSET -0.00122583 -3.29507 0.005984
                            CHANNELS 6 Xposition Yposition Zposition Zrotation Xrotation Yrotation
                            End Site
                            {
                              OFFSET 0.000499661 -2.70059 0.0008129
                            }
                          }
                        }
                      }
                    }
                    JOINT RightHandRing
                    {
                      OFFSET 0.499508 -2.15048 -0.798764
                      CHANNELS 6 Xposition Yposition Zposition Zrotation Xrotation Yrotation
                      JOINT RightHandRing1
                      {
                        OFFSET 0.00252569 -7.74667 -0.205544
                        CHANNELS 6 Xposition Yposition Zposition Zrotation Xrotation Yrotation
                        JOINT RightHandRing2
                        {
                          OFFSET 0.000973125 -3.79876 0.00073756
                          CHANNELS 6 Xposition Yposition Zposition Zrotation Xrotation Yrotation
                          JOINT RightHandRing3
                          {
                            OFFSET -0.00569424 -3.39451 0.0109675
                            CHANNELS 6 Xposition Yposition Zposition Zrotation Xrotation Yrotation
                            End Site
                            {
                              OFFSET -0.00081526 -2.60166 -0.0082511
                            }
                          }
                        }
                      }
                    }
                    JOINT RightHandPinky
                    {
                      OFFSET 0.748888 -1.75051 -1.84495
                      CHANNELS 6 Xposition Yposition Zposition Zrotation Xrotation Yrotation
                      JOINT RightHandPinky1
                      {
                        OFFSET 0.000266461 -7.14994 -1.00036
                        CHANNELS 6 Xposition Yposition Zposition Zrotation Xrotation Yrotation
                        JOINT RightHandPinky2
                        {
                          OFFSET 0.00185939 -2.99908 -0.00182828
                          CHANNELS 6 Xposition Yposition Zposition Zrotation Xrotation Yrotation
                          JOINT RightHandPinky3
                          {
                            OFFSET -0.000897462 -2.34885 0.00243656
                            CHANNELS 6 Xposition Yposition Zposition Zrotation Xrotation Yrotation
                            End Site
                            {
                              OFFSET -0.000136807 -2.09972 -0.00011232
                            }
                          }
                        }
                      }
                    }
                  }
                }
              }
            }
          }
        }
      }
    }
  }
  JOINT LeftUpLeg
  {
    OFFSET 8.00003 0 1.35863e-05
    CHANNELS 6 Xposition Yposition Zposition Zrotation Xrotation Yrotation
    JOINT LeftLeg
    {
      OFFSET -0.000406826 -45.0001 -0.999527
      CHANNELS 6 Xposition Yposition Zposition Zrotation Xrotation Yrotation
      JOINT LeftFoot
      {
        OFFSET -0.00021315 -41 -2.00012
        CHANNELS 6 Xposition Yposition Zposition Zrotation Xrotation Yrotation
        JOINT LeftToeBase
        {
          OFFSET 0.00259585 -7.5 12.5015
          CHANNELS 6 Xposition Yposition Zposition Zrotation Xrotation Yrotation
          JOINT LeftFootToe
          {
            OFFSET 0 0 4
            CHANNELS 6 Xposition Yposition Zposition Zrotation Xrotation Yrotation
            End Site
            {
              OFFSET 0 0 0
            }
          }
        }
      }
    }
  }
  JOINT RightUpLeg
  {
    OFFSET -8.00003 0 -1.35863e-05
    CHANNELS 6 Xposition Yposition Zposition Zrotation Xrotation Yrotation
    JOINT RightLeg
    {
      OFFSET -2.76332e-05 -45.0001 -1.0002
      CHANNELS 6 Xposition Yposition Zposition Zrotation Xrotation Yrotation
      JOINT RightFoot
      {
        OFFSET -9.43493e-05 -41 -1.99995
        CHANNELS 6 Xposition Yposition Zposition Zrotation Xrotation Yrotation
        JOINT RightToeBase
        {
          OFFSET 0.000284003 -7.5 12.4999
          CHANNELS 6 Xposition Yposition Zposition Zrotation Xrotation Yrotation
          JOINT RightFootToe
          {
            OFFSET 0 0 4
            CHANNELS 6 Xposition Yposition Zposition Zrotation Xrotation Yrotation
            End Site
            {
              OFFSET 0 0 0
            }
          }
        }
      }
    }
  }
}
MOTION
Frames:	3
Frame Time:	0.0111111
-281.61 91.3333 1167.07 2.06416 5.53072 -111.691 2.27374e-13 8 5.68434e-14 12.1842 7.41228 9.95873 0 8 1.42109e-13 2.66269 4.9436 3.13575 0 8 -8.52651e-14 1.36515 2.45562 1.59656 2.27374e-13 8 2.84217e-14 1.36301 2.45168 1.59449 0 17 1.13687e-13 -3.40056 7.33964 8.52167 0 10.8 -1.7053e-13 -9.86318 16.2306 21.0822 5 17 5.68434e-14 -6.00642 -1.80727 -0.584451 6.45 -1.13687e-13 5.68434e-14 -0.958512 -0.368819 -0.157537 6.45 0 5.68434e-14 53.65 -68.5109 31.6111 0 -32.4 -2 1.89313 -14.0635 1.90933 2.27374e-13 -25.65 2 -6.31797 -24.921 59.1993 -0.5 -1.5 2.65 32.3106 -31.5318 56.2687 1.13687e-13 -3.8 3.7 -0.0972054 -0.923408 -0.000308815 -1.13687e-13 -3 2.7 -0.0233285 15.4183 -0.00717329 0 -1.9 1.6 8.28515e-06 -1.20436e-05 1.08077e-05 2.27374e-13 -8.3 1.9 -2.51536 13.049 0.340498 0 -4.5 0 -0.078954 0.0463199 0.0136101 -2.27374e-13 -3.4 -1.13687e-13 -0.0114644 0.0532798 0.0187773 -0.25 -2.2 0.4 8.28515e-06 -1.20436e-05 1.08077e-05 0 -8.3 1 -10.3563 12.8341 1.63523 -2.27374e-13 -4.65 -1.13687e-13 -23.2788 -0.108686 0.0464897 -1.13687e-13 -3.3 0 -90.0002 -6.3586e-05 4.52221e-05 -0.5 -2.15 -0.8 8.28515e-06 -1.20436e-05 1.08077e-05 0 -7.75 -0.2 -26.3596 12.1826 4.14188 1.13687e-13 -3.8 0 -61.34 0.0116502 -0.00121155 -1.13687e-13 -3.4 0 -90.0002 0.00494462 0.00162347 -0.75 -1.75 -1.85 8.28515e-06 -1.20436e-05 1.08077e-05 2.27374e-13 -7.15 -1 -37.215 9.55034 5.07918 0 -3 0 -43.0138 -0.000720904 0.00668159 1.7053e-13 -2.35 0 -29.9287 0.00729499 0.00410212 -5 17 0 -3.24925 -5.45131 -1.99074 -6.45 -1.42109e-13 -1.42109e-13 -1.54053 1.12548 -2.06275 -6.45 0 0 29.7801 -44.3068 28.5759 0 -32.4 -2 -0.869548 -54.2562 -18.7655 1.13687e-13 -25.65 2 11.4182 20.5031 5.39439 0.5 -1.5 2.65 -139.019 65.3911 -64.4976 0 -3.8 3.7 0.392962 50.6895 0.00918172 0 -3 2.7 0.0263104 15.6848 -0.0248829 1.13687e-13 -1.9 1.6 -9.12999e-06 -3.90493e-06 -2.36182e-06 0 -8.3 1.9 8.70064 -16.1947 1.07277 2.27374e-13 -4.5 -3.41061e-13 -0.0156959 0.0164025 0.256932 0 -3.4 -2.27374e-13 -0.130713 -0.0671175 0.0365143 0.25 -2.2 0.4 -9.12999e-06 -3.90493e-06 -2.36182e-06 1.13687e-13 -8.3 1 13.5709 -2.34067 0.0233907 -1.13687e-13 -4.65 0 2.04402 11.1577 4.65565 0 -3.3 2.84217e-14 33.3472 -0.0377145 -0.0830288 0.5 -2.15 -0.8 -9.12999e-06 -3.90493e-06 -2.36182e-06 0 -7.75 -0.2 58.134 -3.79636 -1.24893 5.68434e-14 -3.8 1.13687e-13 3.47853 19.4289 11.5759 0 -3.4 -2.27374e-13 46.3858 -0.00618636 -0.00123459 0.75 -1.75 -1.85 -9.12999e-06 -3.90493e-06 -2.36182e-06 0 -7.15 -1 73.7531 -1.07713 -6.68817 -1.13687e-13 -3 1.13687e-13 4.29315 13.8683 4.67978 0 -2.35 2.84217e-14 29.0885 -0.0146739 -0.0101326 8 -5.68434e-14 -1.13687e-13 13.2638 -23.44 20.9881 2.27374e-13 -45 -1 1.88047 1.17645 -14.2256 0 -41 -2 -6.80165 14.7949 -29.8104 0 -7.5 12.5 -0.000275766 -0.333722 -0.0483018 -2.27374e-13 -7.10543e-15 4 0.744444 -6.44329 9.71022 -8 0 5.68434e-14 -1.07034 3.18192 3.10155 0 -45 -1 16.0574 -5.46637 -2.55766 -2.27374e-13 -41 -2 -9.31315 1.57452 -18.6022 0 -7.5 12.5 0.000166829 0.269484 -0.0353405 2.27374e-13 -4.44089e-16 4 1.85606 -0.46279 18.164 
-281.619 91.3289 1167.07 2.06877 5.52759 -111.762 0 8 1.13687e-13 12.1857 7.36528 9.95776 2.27374e-13 8 5.68434e-14 2.65909 4.93078 3.1429 0 8 -8.52651e-14 1.36319 2.44918 1.60007 2.27374e-13 8 5.68434e-14 1.3611 2.44523 1.59751 -2.27374e-13 17 1.13687e-13 -3.39856 7.32859 8.5264 4.54747e-13 10.8 -1.13687e-13 -9.85659 16.2053 21.0932 5 17 1.13687e-13 -6.05927 -1.84236 -0.614769 6.45 -1.13687e-13 0 -0.957936 -0.369191 -0.123511 6.45 0 0 53.6277 -68.0467 31.4015 0 -32.4 -2 1.63745 -14.863 1.89753 0 -25.65 2 -5.90625 -25.4506 58.5711 -0.5 -1.5 2.65 31.7406 -30.3857 55.8532 5.68434e-14 -3.8 3.7 -0.0956303 -0.927206 0.00179568 -1.13687e-13 -3 2.7 -0.0233228 14.9341 -0.00863765 0 -1.9 1.6 8.28515e-06 -1.20436e-05 1.08077e-05 0 -8.3 1.9 -2.2712 12.3674 0.281608 0 -4.5 -1.13687e-13 -0.0631469 0.0461401 0.013869 -2.27374e-13 -3.4 -1.13687e-13 0.00441319 0.0531836 0.0191189 -0.25 -2.2 0.4 8.28515e-06 -1.20436e-05 1.08077e-05 2.27374e-13 -8.3 1 -9.56917 12.3125 1.44964 -2.27374e-13 -4.65 0 -20.9781 -0.11586 0.0679467 0 -3.3 0 -90.0555 0.00234775 -0.00101082 -0.5 -2.15 -0.8 8.28515e-06 -1.20436e-05 1.08077e-05 -2.27374e-13 -7.75 -0.2 -24.3002 11.9237 3.72358 0 -3.8 0 -61.1433 0.00130996 0.00292097 -8.52651e-14 -3.4 1.13687e-13 -90.0002 0.00494462 0.00162347 -0.75 -1.75 -1.85 8.28515e-06 -1.20436e-05 1.08077e-05 0 -7.15 -1 -34.3312 9.6906 4.65137 0 -3 0 -43.4788 -0.000602502 -0.00031988 5.68434e-14 -2.35 0 -30.2254 0.00715948 -0.000621393 -5 17 2.84217e-14 -3.16976 -5.43092 -1.99719 -6.45 -1.42109e-13 -1.13687e-13 -1.5419 1.10861 -2.04275 -6.45 -2.84217e-14 -2.84217e-14 29.3465 -44.4146 28.3076 0 -32.4 -2 -1.14165 -54.3402 -17.9336 0 -25.65 2 11.1899 20.4364 6.5355 0.5 -1.5 2.65 -141.491 66.9736 -60.8929 4.54747e-13 -3.8 3.7 0.392963 50.6895 0.0091815 0 -3 2.7 0.0263096 15.6847 -0.0248816 0 -1.9 1.6 -9.12999e-06 -3.90493e-06 -2.36182e-06 0 -8.3 1.9 8.67399 -15.9928 1.05484 1.13687e-13 -4.5 -2.27374e-13 -0.0157234 0.0163919 0.257007 -1.13687e-13 -3.4 -1.7053e-13 -0.130744 -0.0671752 0.0365383 0.25 -2.2 0.4 -9.12999e-06 -3.90493e-06 -2.36182e-06 0 -8.3 1 13.2322 -1.73889 -0.00823795 0 -4.65 -1.13687e-13 2.02422 11.3683 4.94053 1.13687e-13 -3.3 -2.84217e-14 34.2061 -0.0269677 -0.0613385 0.5 -2.15 -0.8 -9.12999e-06 -3.90493e-06 -2.36182e-06 2.27374e-13 -7.75 -0.2 58.5158 -3.85029 -1.18964 1.13687e-13 -3.8 1.13687e-13 3.4652 19.4487 11.6249 -5.68434e-14 -3.4 -2.55795e-13 46.5111 -0.00231508 0.00102147 0.75 -1.75 -1.85 -9.12999e-06 -3.90493e-06 -2.36182e-06 0 -7.15 -1 74.3885 -1.3123 -6.6937 0 -3 1.42109e-13 4.30096 13.9807 4.77833 -1.13687e-13 -2.35 0 29.3268 -0.0108736 -0.00691145 8 -2.84217e-14 -5.68434e-14 13.2828 -23.4362 20.9859 0 -45 -1 1.90228 1.21243 -14.2204 -2.27374e-13 -41 -2 -6.83083 14.8116 -29.7438 0 -7.5 12.5 -0.000276009 -0.333854 -0.0483246 -2.27374e-13 0 4 0.772135 -6.48143 9.71099 -8 0 5.68434e-14 -1.09332 3.19081 3.1041 0 -45 -1 16.0924 -5.48168 -2.56037 2.27374e-13 -41 -2 -9.32805 1.58001 -18.5356 -2.27374e-13 -7.5 12.5 0.000165756 0.268292 -0.0352684 0 0 4 1.85318 -0.454207 18.164 
-281.629 91.3245 1167.07 2.07375 5.52426 -111.837 2.27374e-13 8 1.13687e-13 12.1884 7.31871 9.95598 2.27374e-13 8 5.68434e-14 2.65567 4.91805 3.15238 0 8 -1.13687e-13 1.36108 2.44278 1.60464 0 8 -2.84217e-14 1.35908 2.43895 1.60163 0 17 1.13687e-13 -3.39055 7.31063 8.52721 0 10.8 -1.13687e-13 -9.83356 16.1654 21.0978 5 17 5.68434e-14 -6.12473 -1.87906 -0.650648 6.45 -1.13687e-13 0 -0.957463 -0.369878 -0.088225 6.45 0 -5.68434e-14 53.6021 -67.5655 31.2637 2.27374e-13 -32.4 -2 1.36667 -15.7553 1.86525 2.27374e-13 -25.65 2 -5.38735 -25.9898 57.8388 -0.5 -1.5 2.65 31.0591 -29.1476 55.3296 1.13687e-13 -3.8 3.7 -0.0946831 -0.968472 0.00349283 -1.13687e-13 -3 2.7 -0.0232969 14.4854 -0.00990816 0 -1.9 1.6 8.28515e-06 -1.20436e-05 1.08077e-05 0 -8.3 1.9 -1.9956 11.5897 0.22325 -2.27374e-13 -4.5 0 -0.0587011 0.0459331 0.0141258 -2.27374e-13 -3.4 -2.27374e-13 0.0088181 0.0530618 0.0194607 -0.25 -2.2 0.4 8.28515e-06 -1.20436e-05 1.08077e-05 0 -8.3 1 -8.61731 11.7287 1.24606 -4.54747e-13 -4.65 0 -18.3794 -0.100528 0.0900849 -1.13687e-13 -3.3 0 -90.8798 0.0382413 -0.0167691 -0.5 -2.15 -0.8 8.28515e-06 -1.20436e-05 1.08077e-05 0 -7.75 -0.2 -21.8631 11.6872 3.27654 0 -3.8 1.13687e-13 -60.396 -0.0200036 0.00771677 -1.7053e-13 -3.4 1.13687e-13 -90.0002 0.00494462 0.00162347 -0.75 -1.75 -1.85 8.28515e-06 -1.20436e-05 1.08077e-05 2.27374e-13 -7.15 -1 -30.8772 9.90083 4.18431 -1.13687e-13 -3 0 -44.1904 -0.000480886 -0.00426562 5.68434e-14 -2.35 0 -30.6881 0.0070146 -0.00218671 -5 17 -2.84217e-14 -3.08536 -5.41909 -1.9972 -6.45 -1.42109e-13 -1.13687e-13 -1.54324 1.09349 -2.0244 -6.45 -2.84217e-14 0 28.8656 -44.5009 28.0043 0 -32.4 -2 -1.43241 -54.4949 -17.0888 0 -25.65 2 10.9377 20.3748 7.70959 0.5 -1.5 2.65 -144.525 68.532 -56.698 2.27374e-13 -3.8 3.7 0.392963 50.6895 0.00918097 0 -3 2.7 0.0263087 15.6847 -0.0248803 1.13687e-13 -1.9 1.6 -9.12999e-06 -3.90493e-06 -2.36182e-06 -1.13687e-13 -8.3 1.9 8.6507 -15.7841 1.03867 2.27374e-13 -4.5 -3.41061e-13 -0.0157492 0.0163815 0.257081 -1.13687e-13 -3.4 -2.27374e-13 -0.130773 -0.0672323 0.036562 0.25 -2.2 0.4 -9.12999e-06 -3.90493e-06 -2.36182e-06 1.13687e-13 -8.3 1 13.2673 -1.26807 -0.0398694 -1.13687e-13 -4.65 -1.13687e-13 2.00925 11.5221 5.14608 -1.13687e-13 -3.3 2.84217e-14 34.8517 -0.0203197 -0.0487776 0.5 -2.15 -0.8 -9.12999e-06 -3.90493e-06 -2.36182e-06 -1.13687e-13 -7.75 -0.2 58.9717 -3.89549 -1.15787 8.52651e-14 -3.8 -5.68434e-14 3.4593 19.4657 11.6496 -5.68434e-14 -3.4 -1.98952e-13 46.5854 -0.00625744 0.00184252 0.75 -1.75 -1.85 -9.12999e-06 -3.90493e-06 -2.36182e-06 0 -7.15 -1 75.0264 -1.56431 -6.68788 0 -3 1.13687e-13 4.30789 14.0723 4.85414 -1.13687e-13 -2.35 0 29.517 -0.00895559 -0.00487396 8 2.84217e-14 -1.7053e-13 13.3014 -23.4312 20.9822 2.27374e-13 -45 -1 1.92567 1.2499 -14.2154 0 -41 -2 -6.86214 14.8341 -29.6741 0 -7.5 12.5 -0.000276251 -0.333984 -0.0483472 -2.27374e-13 -7.10543e-15 4 0.804052 -6.5239 9.71186 -8 0 1.13687e-13 -1.11645 3.19928 3.1008 0 -45 -1 16.1268 -5.49496 -2.56314 -2.27374e-13 -41 -2 -9.34169 1.58466 -18.4606 0 -7.5 12.5 0.000164683 0.267096 -0.0351962 0 -4.44089e-16 4 1.8514 -0.448959 18.164 
